<?xml version="1.0" encoding="utf-8"?>
<!-- Generator: Adobe Illustrator 16.0.0, SVG Export Plug-In . SVG Version: 6.00 Build 0)  -->
<!DOCTYPE svg PUBLIC "-//W3C//DTD SVG 1.1//EN" "http://www.w3.org/Graphics/SVG/1.1/DTD/svg11.dtd">
<svg version="1.1" id="Layer_1" xmlns="http://www.w3.org/2000/svg" xmlns:xlink="http://www.w3.org/1999/xlink" x="0px" y="0px"
	 width="512px" height="512px" viewBox="0 0 512 512" enable-background="new 0 0 512 512" xml:space="preserve">
<g id="fHGire_1_">
	<g>
		<path fill-rule="evenodd" clip-rule="evenodd" fill="#2C2C2C" d="M352.016,299.483c-0.429,32.475-12.124,60.562-33.678,84.573
			c-3.528,3.93-3.591,6.292-0.695,10.509c12.63,18.394,24.93,37.014,37.214,55.645c11.383,17.265,8.295,34.354-8.275,46.562
			c-2.449,1.804-5.059,3.408-7.673,4.97c-14.838,8.876-32.983,5.355-41.945-9.447c-8.171-13.494-14.812-27.915-22.067-41.96
			c-4.37-8.462-8.79-16.91-12.86-25.517c-1.729-3.654-3.532-4.898-7.798-3.929c-15.957,3.631-31.993,3.412-48.296,1.545
			c-41.891-4.8-70.883-28.24-91.113-63.251c-31.799-55.036-15.737-126.491,36.264-163.01c28.849-20.259,61.023-27.253,96.148-21.832
			C304.732,183.211,352.775,237.835,352.016,299.483z M285.473,384.828c0.554-0.887,0.7-1.259,0.958-1.52
			c4.859-4.857,9.881-9.565,14.577-14.577c24.178-25.82,33.73-56.279,27.22-91.079c-9.3-49.707-57.331-91.812-118.173-82.609
			c-47.953,7.249-87.827,50.845-88.361,99.398c-0.327,29.813,10.166,55.714,31.18,76.865c16.12,16.225,35.366,26.792,58.529,29.673
			c18.439,2.291,36.109-0.702,53.436-6.546c4.151-1.4,6.022-0.506,7.97,3.333c12.341,24.299,25.314,48.284,37.303,72.755
			c8.599,17.545,12.14,13.888,24.765,5.454c5.215-3.484,5.821-7.255,2.528-12.812c-3.108-5.245-6.405-10.393-9.791-15.464
			C313.632,426.765,299.585,405.877,285.473,384.828z"/>
		<path fill-rule="evenodd" clip-rule="evenodd" fill="#41BCA0" d="M495.896,56.057c0.221,39.017-40.614,63.306-74.957,44.5
			c-4.091-2.239-6.058-1.693-8.905,1.648c-25.479,29.913-51.124,59.684-76.722,89.497c-0.498,0.578-0.981,1.17-1.499,1.731
			c-1.963,2.143-3.904,4.631-7.137,2.031c-3.361-2.704-1.812-5.144,0.432-7.727c9.251-10.659,18.404-21.403,27.602-32.111
			c16.901-19.681,33.724-39.428,50.785-58.969c2.93-3.358,3.142-5.381,0.197-8.994c-13.626-16.72-14.854-39.802-3.567-58.23
			c11.276-18.414,33.166-27.482,54.91-22.757c19.875,4.322,36.04,21.976,38.817,42.523
			C496.156,51.446,495.896,53.768,495.896,56.057z M445.404,86.797C461.19,86.794,474.29,73.896,474.45,58.2
			c0.16-15.605-13.604-29.267-29.333-29.116c-15.722,0.155-28.479,13.222-28.425,29.119C416.746,74.253,429.344,86.8,445.404,86.797
			z"/>
		<path fill-rule="evenodd" clip-rule="evenodd" fill="#41BCA0" d="M103.17,153.707c8.534,9.1,16.88,18.002,25.225,26.904
			c0.916,0.975,2.324,1.813,2.635,2.952c0.521,1.902,0.338,3.997,0.45,6.01c-1.991-0.372-4.686-0.046-5.858-1.227
			c-7.933-7.99-15.551-16.289-23.249-24.507c-1.559-1.665-3.035-3.41-4.831-5.438c-13.706,10.232-28.458,14.537-44.832,9.949
			c-11.995-3.361-21.543-10.461-28.389-20.942c-13.942-21.34-9.981-50.55,9.028-67.116C51.362,64.593,79.37,64.93,97.964,80.67
			C116.144,96.057,124.307,127.167,103.17,153.707z M66.803,90.782c-16.151,0.072-29.196,13.142-28.987,29.05
			c0.192,14.701,14.484,28.586,29.517,28.678c15.33,0.091,28.263-13.325,28.213-29.272C95.501,103.34,82.746,90.717,66.803,90.782z"
			/>
		<path fill-rule="evenodd" clip-rule="evenodd" fill="#41BCA0" d="M199.643,258.402c22.416-13.833,43.229-11.665,63.554,4.512
			c6.477-7.644,12.765-15.201,19.246-22.59c1.254-1.427,3.278-3.101,4.92-3.072c3.511,0.06,4.629,4.179,2.023,7.352
			c-5.447,6.631-10.916,13.262-16.712,19.58c-2.844,3.099-3.296,5.192-0.979,9.188c9.978,17.204,9.965,34.979,0.189,52.178
			c-9.506,16.728-24.347,25.668-43.735,25.229c-20.668-0.467-36.068-10.43-44.978-29.072c-8.885-18.595-5.999-36.268,6.437-52.502
			c1.15-1.504,2.425-2.909,4.142-4.952c-6.079-6.581-12.106-13.115-18.137-19.643c-1.811-1.959-4.076-3.669-5.317-5.941
			c-1.061-1.945-2.106-5.489-1.144-6.634c2.369-2.82,5.014-0.918,7.146,1.408c5.416,5.901,10.893,11.746,16.363,17.602
			C194.856,253.397,197.094,255.717,199.643,258.402z M200.369,299.064c-0.069,15.836,12.644,28.857,28.457,29.144
			c15.436,0.28,29.381-13.647,29.276-29.233c-0.103-15.476-12.973-28.365-28.486-28.528
			C213.161,270.271,200.44,282.718,200.369,299.064z"/>
	</g>
</g>
</svg>
