<?xml version="1.0" encoding="utf-8"?>
<!-- Generator: Adobe Illustrator 16.0.0, SVG Export Plug-In . SVG Version: 6.00 Build 0)  -->
<!DOCTYPE svg PUBLIC "-//W3C//DTD SVG 1.1//EN" "http://www.w3.org/Graphics/SVG/1.1/DTD/svg11.dtd">
<svg version="1.1" id="Layer_1" xmlns="http://www.w3.org/2000/svg" xmlns:xlink="http://www.w3.org/1999/xlink" x="0px" y="0px"
	 width="512px" height="512px" viewBox="0 0 512 512" enable-background="new 0 0 512 512" xml:space="preserve">
<g id="kPmuIc.tif">
	<g>
		<path fill-rule="evenodd" clip-rule="evenodd" fill="#2C2C2C" d="M496,325.508c-1.399,5.077-2.421,10.299-4.266,15.213
			c-10.85,28.834-37.688,47.101-68.806,47.087c-40.758-0.026-81.517,0.085-122.268-0.164c-7.243-0.039-12.646,2.045-17.788,7.26
			c-27.071,27.465-54.451,54.641-81.729,81.909c-1.327,1.323-2.621,2.687-4.042,3.905c-6.562,5.646-14.04,5.149-19.842-1.37
			c-4.576-5.13-6.46-11.249-6.453-18.069c0.026-22.479,0.01-44.964,0.006-67.456c0-1.835,0-3.676,0-6.048
			c-2.778,0-5.084,0.007-7.39,0c-27.321-0.098-54.681,0.623-81.959-0.523c-31.238-1.323-58.824-26.928-64.468-57.825
			c-0.187-1.022-0.662-1.992-0.996-2.987c0-79.06,0-158.119,0-237.185c0.271-0.551,0.678-1.068,0.792-1.638
			c6.968-36.028,35.716-60.04,72.374-60.112c51.397-0.104,102.792-0.007,154.19-0.007c59.522,0,119.041,0.262,178.563-0.117
			c33.214-0.21,62.729,21.05,71.725,52.95c0.838,2.962,1.572,5.949,2.355,8.924C496,168.005,496,246.757,496,325.508z
			 M191.435,457.721c1.743-1.625,2.981-2.719,4.15-3.878c25.191-25.186,50.428-50.317,75.524-75.588
			c7.135-7.187,15.609-10.555,25.598-10.555c43.113-0.006,86.227,0.072,129.337-0.065c22.357-0.078,40.67-12.546,46.854-32.771
			c2.322-7.587,2.84-15.966,2.876-23.979c0.243-52.492,0.171-104.971,0.104-157.456c-0.022-20.77,0.272-41.571-0.603-62.3
			c-0.979-23.331-22.901-43.189-46.195-43.176c-33.427,0.025-66.854-0.072-100.28-0.079c-81.229,0-162.456,0.013-243.684,0.032
			c-10.607,0.007-20.373,2.916-28.961,9.127C41.653,67.521,36.104,82.309,36.107,99.71c0.016,72.167-0.056,144.334,0.052,216.501
			c0.01,5.255,0.573,10.659,1.907,15.73c5.713,21.765,24.477,35.635,48.017,35.707c29.84,0.104,59.673,0.052,89.51,0.059
			c10.076,0.007,15.57,5.438,15.58,15.462c0.02,23.278,0.01,46.55,0.03,69.828C191.202,454.327,191.326,455.663,191.435,457.721z"/>
		<path fill-rule="evenodd" clip-rule="evenodd" fill="#41BCA0" d="M256.018,227.861c-38.259,0-76.521,0-114.782,0
			c-1.251,0-2.503,0.02-3.754,0c-6.896-0.104-11.616-4.22-11.669-10.162c-0.042-5.87,4.809-10.188,11.62-10.207
			c18.116-0.033,36.231-0.02,54.346-0.02c59.971,0.013,119.942,0.02,179.913,0.039c0.939,0,1.877-0.02,2.811,0
			c6.889,0.079,11.613,4.193,11.672,10.142c0.056,5.857-4.818,10.208-11.616,10.221c-25.143,0.026-50.288,0.014-75.433,0.007
			c-14.371,0-28.732,0-43.107,0C256.018,227.874,256.018,227.868,256.018,227.861z"/>
		<path fill-rule="evenodd" clip-rule="evenodd" fill="#41BCA0" d="M246.046,187.692c-36.24,0-72.475-0.039-108.719,0.046
			c-4.694,0.014-8.232-1.539-10.407-5.713c-1.834-3.524-1.317-6.971,0.904-10.161c2.506-3.604,6.233-4.344,10.312-4.344
			c18.593,0.025,37.177,0.006,55.765,0.013c52.489,0.013,104.968,0.032,157.456,0.065c1.714,0,3.447-0.065,5.15,0.092
			c5.972,0.563,9.785,4.9,9.457,10.64c-0.317,5.53-4.334,9.304-10.257,9.317c-24.058,0.059-48.108,0.039-72.163,0.045
			C271.044,187.699,258.55,187.692,246.046,187.692z"/>
		<path fill-rule="evenodd" clip-rule="evenodd" fill="#41BCA0" d="M159.423,67.712c21.555-0.007,43.107-0.014,64.665,0
			c7.456,0.006,12.101,3.904,12.055,10.037c-0.049,6.014-4.77,9.984-12.229,9.991c-40.607,0.046-81.215,0.099-121.822,0.007
			c-20.471-0.04-26.22,5.562-26.102,26.036c0.046,7.803,0.072,15.619-0.026,23.429c-0.068,6.158-3.924,10.234-9.644,10.463
			c-5.602,0.217-10.244-3.728-10.322-9.795c-0.145-12.016-0.557-24.116,0.603-36.034c1.729-17.808,20.628-34.003,38.629-34.108
			C116.627,67.62,138.025,67.712,159.423,67.712z"/>
		<path fill-rule="evenodd" clip-rule="evenodd" fill="#41BCA0" d="M216.275,247.706c26.4,0,52.8-0.02,79.2,0.02
			c5.653,0,9.486,3.132,10.322,8.177c0.828,5.032-1.717,9.821-6.316,11.19c-2.047,0.615-4.32,0.636-6.489,0.643
			c-22.964,0.052-45.927,0.071-68.888,0.064c-27.806,0-55.607-0.025-83.413-0.045c-1.562,0-3.128,0.059-4.685-0.047
			c-5.955-0.419-10.201-4.671-10.171-10.129c0.022-5.66,4.53-9.854,10.774-9.866C163.17,247.687,189.721,247.706,216.275,247.706z"
			/>
		<path fill-rule="evenodd" clip-rule="evenodd" fill="#41BCA0" d="M346.005,257.54c0.085,5.628-4.402,10.201-9.987,10.188
			c-5.448-0.021-9.91-4.317-10.044-9.677c-0.154-5.746,4.059-10.208,9.774-10.339C341.412,247.575,345.92,251.893,346.005,257.54z"
			/>
		<path fill-rule="evenodd" clip-rule="evenodd" fill="#41BCA0" d="M275.987,77.841c-0.085,5.66-4.616,9.991-10.293,9.834
			c-5.703-0.15-9.847-4.605-9.67-10.404c0.17-5.451,4.491-9.578,10.015-9.559C271.774,67.731,276.069,72.114,275.987,77.841z"/>
	</g>
</g>
</svg>
