<?xml version="1.0" encoding="utf-8"?>
<!-- Generator: Adobe Illustrator 16.0.0, SVG Export Plug-In . SVG Version: 6.00 Build 0)  -->
<!DOCTYPE svg PUBLIC "-//W3C//DTD SVG 1.1//EN" "http://www.w3.org/Graphics/SVG/1.1/DTD/svg11.dtd">
<svg version="1.1" id="Layer_1" xmlns="http://www.w3.org/2000/svg" xmlns:xlink="http://www.w3.org/1999/xlink" x="0px" y="0px"
	 width="512px" height="512px" viewBox="0 0 512 512" enable-background="new 0 0 512 512" xml:space="preserve">
<g id="A2jmqG.tif">
	<g>
		<path fill-rule="evenodd" clip-rule="evenodd" fill="#2C2C2C" d="M113.281,23.932c2.989,0.791,5.981,1.576,8.97,2.376
			c20.836,5.574,35.338,19.155,46.461,36.921c2.831,4.521,5.357,9.238,7.912,13.926c5.66,10.386,14.694,12.108,23.67,4.449
			c10.04-8.564,10.821-15.718,2.689-26.367c-2.188-2.867-4.928-5.312-7.118-8.179c-4.034-5.275-1.427-12.621,5.125-13.362
			c18.315-2.067,36.257-0.687,52.368,9.325c16.288,10.122,24.736,25.604,25.816,44.282c0.7,12.1-1.055,24.382-2.197,36.535
			c-1.31,13.914,3.608,24.618,15.325,32.113c7.832,5.01,15.212,4.459,21.912-1.986c4.838-4.653,9.874-9.402,13.475-14.978
			c6.96-10.773,6.933-22.248,0.454-33.459c-2.572-4.451-5.601-8.896-1.217-13.712c4.311-4.737,9.164-2.473,13.835-0.353
			c23.681,10.749,41.318,26.885,46.819,53.461c3.786,18.294,1.417,36.35-6.163,53.038c-9.008,19.836-19.811,38.858-29.884,58.209
			c-2.101,4.037-4.409,7.967-6.817,12.295c1.963,2.158,3.943,4.356,5.946,6.533c44.747,48.646,89.525,97.265,134.231,145.95
			c15.132,16.479,14.712,43.771-0.718,59.197c-15.555,15.554-42.579,16.096-59.156,0.885
			c-49.514-45.436-98.925-90.982-148.379-136.483c-1.15-1.059-2.324-2.095-3.737-3.368c-6.862,3.844-13.744,7.571-20.503,11.509
			c-17.12,9.972-35.134,17.618-54.903,20.191c-27.545,3.588-53.258-0.567-73.77-21.04c-5.866-5.854-10.053-13.562-14.252-20.857
			c-3.286-5.708-1.055-10.221,5.11-12.693c9.679-3.881,18.948-8.396,26.595-15.752c10.656-10.252,11.987-20.038,3.806-32.364
			c-10.017-15.089-23.354-24.506-42.19-25.565c-23.085-1.298-39.058-14.365-50.727-33.236
			c-12.251-19.812-17.881-41.715-19.035-64.854c-0.26-5.187-0.535-10.375-0.62-15.564c-0.137-8.423,4.82-11.708,12.879-9.611
			c8.902,2.317,17.951,4.603,27.069,5.418c10.368,0.928,17.467-5.064,20.906-15.488c3.388-10.264,0.72-18.683-7.925-24.94
			C73.978,78.102,61.092,73.23,47.775,69.282c-2.079-0.617-4.312-1.253-6.014-2.506c-4.222-3.104-4.187-8.483,0.136-13.166
			c11.891-12.879,26.216-21.925,43.111-26.768c3.729-1.07,7.514-1.946,11.272-2.911C101.947,23.932,107.614,23.932,113.281,23.932z
			 M63.195,56.593c5.619,2.433,11.065,4.489,16.225,7.11c5.168,2.627,10.264,5.508,15.014,8.819
			c14.464,10.082,20.205,29.803,13.748,46.21c-6.377,16.203-24.381,26.871-41.593,24.567c-5.69-0.762-11.354-1.71-17.528-2.648
			c0.643,6.714,0.986,13.141,1.918,19.48c2.442,16.627,7.045,32.551,16.825,46.522c8.31,11.871,19.193,20.177,34.04,21.207
			c23.527,1.633,42.154,11.349,55.169,31.275c5.816,8.907,9.436,18.457,8.513,29.289c-1.15,13.525-8.408,23.487-19.031,31.153
			c-5.795,4.182-12.073,7.694-18.582,11.789c1.83,2.336,3.511,4.769,5.479,6.942c15.375,16.991,35.24,20.571,56.822,18.803
			c25.883-2.122,47.614-14.626,69.492-27.833c-3.183-2.968-6.146-5.764-9.145-8.523c-18.402-16.943-37.058-33.624-55.146-50.896
			c-15.007-14.331-20.045-32.171-15.453-52.43c4.885-21.548,18.089-35.846,39.57-40.882c21.094-4.943,40.228-0.266,55.448,16.128
			c18.091,19.485,36.056,39.087,54.042,58.668c1.215,1.323,2.155,2.897,3.666,4.959c10.126-18.556,19.847-35.629,28.793-53.1
			c3.903-7.62,6.874-15.874,9.137-24.149c6.55-23.941,1.486-44.788-17.962-61.248c-0.854-0.722-1.898-1.22-2.743-1.752
			c-0.386,5.213-0.169,10.179-1.202,14.868c-4.242,19.254-16.826,32.394-33.098,42.053c-4.379,2.6-10.597,3.486-15.799,3.062
			c-17.212-1.405-35.348-18.731-38.009-36.351c-1.159-7.663-0.655-15.636-0.338-23.443c0.312-7.667,1.913-15.303,1.953-22.956
			c0.141-26.277-15.165-41.603-44.281-43.338c0.398,0.947,0.714,1.811,1.115,2.63c10.771,21.979-1.931,46.054-26.269,49.554
			c-7.887,1.134-15.841,0.399-21.67-5.428c-4.907-4.905-9.041-10.765-12.695-16.707c-6.958-11.312-14.084-22.386-25.011-30.358
			C111.832,33.021,81.548,41.123,63.195,56.593z M378.292,329.797c0.041,0.076-0.054-0.245-0.258-0.467
			c-20.793-22.568-41.624-45.103-62.345-67.738c-1.851-2.021-3.51-1.981-5.773-1.273c-15.726,4.916-31.471,9.77-47.215,14.626
			c-8.932,2.755-17.873,5.474-27.762,8.501c33.44,30.863,66.194,61.094,98.633,91.033
			C348.625,359.439,363.293,344.783,378.292,329.797z M424.025,379.313c-13.646,13.662-27.047,27.079-40.723,40.771
			c1.961,1.83,4.222,3.964,6.507,6.071c15.142,13.956,30.326,27.867,45.416,41.879c7.099,6.59,15.092,10.371,24.862,7.729
			c20.025-5.417,26.767-27.643,13-43.121c-11.072-12.449-22.527-24.557-33.816-36.812
			C434.077,390.193,428.874,384.565,424.025,379.313z M197.828,245.63c1.833,2.759,2.944,5.087,4.638,6.856
			c4.883,5.103,10.1,9.886,14.982,14.988c2.224,2.324,4.267,2.833,7.407,1.83c15.238-4.865,30.568-9.447,45.855-14.16
			c9.854-3.039,19.69-6.134,30.185-9.406c-6.84-7.432-13.146-14.418-19.673-21.193c-0.751-0.779-2.825-0.793-4.11-0.467
			c-8.361,2.119-16.679,4.411-25.001,6.686C234.29,235.631,216.476,240.521,197.828,245.63z M411.962,366.383
			c-7.292-7.928-14.475-15.736-21.446-23.316c-14.731,14.704-29.073,29.021-43.583,43.504c7.656,7.003,15.599,14.268,23.351,21.358
			C384.267,393.989,397.853,380.446,411.962,366.383z M266.801,209.587c-9.72-15.135-28.425-24.193-47.096-16.506
			c-16.257,6.693-27.234,25.581-24.465,36.046C219.051,222.625,242.858,216.125,266.801,209.587z"/>
		<path fill-rule="evenodd" clip-rule="evenodd" fill="#41BCA0" d="M16,397.945c2.474-4.095,5.888-5.802,10.872-5.8
			c11.066,0.003,19.936-8.29,21.452-19.34c0.299-2.175,0.354-4.387,0.714-6.549c0.729-4.37,3.918-6.62,7.824-6.8
			c3.994-0.184,7.129,2.101,8.235,6.295c0.355,1.353,0.5,2.778,0.593,4.181c0.918,13.757,9.576,22.012,23.495,22.363
			c4.642,0.117,8.328,2.885,8.942,6.714c0.711,4.42-1.776,8.65-6.014,9.896c-1.318,0.388-2.791,0.318-4.194,0.345
			c-12.021,0.225-21.137,8.732-22.188,20.716c-0.178,2.028-0.177,4.122-0.716,6.058c-1.109,3.985-4.287,6.036-8.086,5.902
			c-3.964-0.14-7.161-2.279-7.878-6.702c-0.327-2.01-0.358-4.066-0.651-6.081c-1.753-12.068-10.336-19.804-22.45-19.772
			c-4.692,0.013-7.545-2.269-9.951-5.759C16,401.723,16,399.834,16,397.945z M56.9,408.087c2.619-2.396,5.46-4.991,8.168-7.467
			c-2.649-2.704-5.347-5.456-7.557-7.713c-2.701,2.706-5.423,5.434-7.813,7.827C52.01,403.094,54.706,405.847,56.9,408.087z"/>
		<path fill-rule="evenodd" clip-rule="evenodd" fill="#41BCA0" d="M458.473,103.224c-4.414,1.196-7.359-0.884-10.262-3.98
			c-5.69-6.075-11.745-11.808-17.619-17.712c-3.94-3.963-3.914-12.941,0.045-16.924c6.428-6.464,12.872-12.91,19.339-19.333
			c3.758-3.729,13.246-3.7,17.013,0.045c6.464,6.425,12.919,12.86,19.334,19.334c3.994,4.028,3.965,12.896-0.021,16.906
			c-5.872,5.909-11.91,11.657-17.607,17.728C465.798,102.375,462.85,104.461,458.473,103.224z M470.818,73.125
			c-4.18-4.105-8.295-8.148-12.145-11.931c-4.019,4.027-8.176,8.191-11.786,11.809c3.818,3.948,7.826,8.092,11.672,12.068
			C462.559,81.174,466.684,77.153,470.818,73.125z"/>
		<path fill-rule="evenodd" clip-rule="evenodd" fill="#41BCA0" d="M270.25,449.574c13.34,1.114,16.51,2.613,16.142,8.324
			c-0.684,10.602-9.449,7.724-16.34,8.82c0,2.542,0.062,4.999-0.014,7.452c-0.152,4.941-3.63,8.585-8.127,8.612
			c-4.354,0.024-7.814-3.27-8.214-8.077c-0.206-2.479-0.036-4.989-0.036-8.021c-2.699-0.146-4.976-0.288-7.254-0.391
			c-5.723-0.257-9.437-3.669-9.241-8.509c0.188-4.675,3.859-7.802,9.312-7.892c2.178-0.037,4.356-0.007,6.723-0.007
			c1.08-6.836-1.797-16.5,9.086-16.187C272.446,433.995,269.433,443.146,270.25,449.574z"/>
		<path fill-rule="evenodd" clip-rule="evenodd" fill="#41BCA0" d="M417.462,261.675c-0.052,4.621-3.442,7.956-8.079,7.948
			c-4.82-0.007-8.369-3.593-8.25-8.335c0.115-4.564,3.574-7.959,8.15-7.996C414.023,253.254,417.519,256.835,417.462,261.675z"/>
		<path fill-rule="evenodd" clip-rule="evenodd" fill="#41BCA0" d="M180.936,28.251c-0.052,4.621-3.442,7.956-8.079,7.948
			c-4.82-0.007-8.369-3.593-8.25-8.335c0.115-4.564,3.574-7.959,8.15-7.996C177.498,19.83,180.993,23.411,180.936,28.251z"/>
		<path fill-rule="evenodd" clip-rule="evenodd" fill="#41BCA0" d="M81.512,277.884c4.589-0.108,8.1,3.175,8.299,7.764
			c0.214,4.893-3.123,8.477-7.947,8.534c-4.659,0.057-8.18-3.205-8.338-7.724C73.357,281.619,76.73,277.997,81.512,277.884z"/>
	</g>
</g>
</svg>
