<?xml version="1.0" encoding="utf-8"?>
<!-- Generator: Adobe Illustrator 16.0.0, SVG Export Plug-In . SVG Version: 6.00 Build 0)  -->
<!DOCTYPE svg PUBLIC "-//W3C//DTD SVG 1.1//EN" "http://www.w3.org/Graphics/SVG/1.1/DTD/svg11.dtd">
<svg version="1.1" id="Layer_1" xmlns="http://www.w3.org/2000/svg" xmlns:xlink="http://www.w3.org/1999/xlink" x="0px" y="0px"
	 width="512px" height="512px" viewBox="0 0 512 512" enable-background="new 0 0 512 512" xml:space="preserve">
<g id="kRiWnq_1_">
	<g>
		<path fill-rule="evenodd" clip-rule="evenodd" fill="#2C2C2C" d="M475.189,150.313c-4.673,0-8.96,0-13.238,0
			c-14.568-0.016-29.145-0.225-43.704,0.064c-4.987,0.105-6.511-1.748-6.092-6.349c0.233-2.627,0.21-5.31,0-7.937
			c-0.33-4.303,1.442-5.842,5.753-5.802c17.05,0.153,34.107,0.056,51.158,0.056c1.812,0,3.625,0,5.938,0
			c0.21-1.522,0.58-2.908,0.58-4.294c-0.04-18.54-0.096-37.081-0.233-55.622c-0.016-3.134-0.032-6.341-0.677-9.379
			c-2.941-13.729-11.53-21.127-27.428-21.675c-20.837-0.717-41.714-0.249-62.567-0.395c-3.714-0.032-3.304,2.369-3.304,4.673
			c0.024,16.06,0.073,32.118,0.098,48.177c0.008,7.872-0.009,7.969-8.034,7.856c-13.19-0.193-12.513,2.514-12.529-12.4
			c-0.017-14.077,0.008-28.146,0.017-42.214c0-1.789,0-3.578,0-5.632c-1.717-0.178-2.982-0.412-4.255-0.42
			c-28.637-0.016-57.281,0.017-85.918-0.057c-3.224,0-5.27,0.307-5.253,4.44c0.145,27.814,0.072,55.63,0.088,83.437
			c0.008,0.958,0.201,1.917,0.379,3.496c1.958,0,3.723,0,5.487,0c17.05-0.016,34.1,0.064,51.149-0.096
			c3.988-0.041,5.89,1.096,5.535,5.35c-0.258,3.118-0.217,6.293-0.008,9.428c0.273,3.932-1.467,5.253-5.254,5.229
			c-17.211-0.088-34.43,0.153-51.648-0.129c-4.682-0.072-5.785,1.379-5.754,5.858c0.194,27.476,0.186,54.96,0.009,82.444
			c-0.024,4.207,1.257,5.399,5.358,5.182c6.438-0.338,12.908-0.049,19.362-0.097c3.996-0.032,5.036,1.757,3.497,5.31
			c-0.129,0.307-0.258,0.604-0.395,0.911c-6.317,14.028-6.317,14.019-21.772,13.786c-1.772-0.032-3.553-0.008-5.64-0.008
			c0,10.003-0.484,19.567,0.129,29.067c0.766,12.062-4.964,21.627-10.636,31.32c-0.588,0.999-2.067,1.587-3.243,2.127
			c-5.113,2.337-6.644,1.418-6.664-4.085c-0.044-12.087-0.012-24.173-0.012-36.26c0-7.099,0-14.205,0-21.969
			c-2.099-0.097-3.997-0.258-5.894-0.258c-17.05-0.016-34.104-0.104-51.153,0.081c-4.114,0.04-5.782-1.298-5.419-5.439
			c0.246-2.795,0.29-5.647-0.008-8.436c-0.504-4.713,1.204-6.365,6.079-6.284c16.716,0.29,33.439,0.161,50.158,0.185
			c1.805,0,3.614,0,5.874,0c0-31.021,0-61.704,0-92.855c-30.945,0-61.962,0-93.649,0c-0.068,1.451-0.217,3.184-0.222,4.924
			c-0.012,17.05-0.161,34.1,0.097,51.149c0.073,4.907-1.648,6.575-6.341,6.14c-2.957-0.281-5.971-0.25-8.932-0.016
			c-4.25,0.346-5.475-1.676-5.439-5.592c0.141-15.721,0.113-31.449,0.145-47.178c0.004-1.99-0.117-3.98,0.02-5.955
			c0.213-2.996-0.999-4.028-4.025-4.012c-29.136,0.097-58.272,0.072-87.408,0.097c-0.648,0-1.297,0.153-2.393,0.29
			c0,30.868,0,61.688,0,92.969c7.373,0,14.463,0,21.558,0c11.917,0,23.838,0.129,35.755-0.064c3.952-0.064,5.608,0.982,5.661,5.244
			c0.173,14.778,0.31,14.786-14.472,14.786c-14.403,0-28.806-0.024-43.213-0.032c-1.611,0-3.227,0-5.29,0
			c-0.121,2.196-0.302,3.96-0.298,5.717c0.041,17.219,0.012,34.438,0.222,51.649c0.077,6.35-1.579,11.619-6.672,15.761
			c-2.808,2.28-5.068,5.229-7.779,7.646c-0.971,0.862-2.804,1.716-3.783,1.354c-1.043-0.395-1.865-2.151-2.208-3.465
			c-0.407-1.563-0.258-3.279-0.258-4.939c-0.004-89.886-0.04-179.784,0.028-269.682c0.021-28.362,20.144-48.37,48.596-48.378
			c127.479-0.04,254.953-0.04,382.433,0c28.806,0.008,48.651,19.887,48.691,48.732c0.072,52.148,0.024,104.297,0.024,156.445
			c0,0.5,0.121,1.031-0.024,1.482c-0.798,2.547-1.651,5.068-2.489,7.591c-2.119-1.337-4.319-2.57-6.333-4.053
			c-9.581-7.011-12.449-16.494-11.805-28.178c0.813-14.858,0.298-29.78,0.314-44.679
			C475.617,154.511,475.359,152.57,475.189,150.313z M245.521,130.049c0-2.055,0-3.828,0-5.593
			c0.008-26.646-0.084-53.284,0.129-79.923c0.036-4.375-1.096-5.608-5.511-5.576c-28.298,0.186-56.592,0.081-84.891,0.089
			c-1.257,0-2.51,0.241-3.714,0.362c0,30.441,0,60.48,0,90.641C182.873,130.049,213.895,130.049,245.521,130.049z M130.281,130.097
			c0.173-0.967,0.439-1.741,0.439-2.522c0.028-28.281-0.004-56.564,0.089-84.846c0.012-3.256-1.426-3.747-4.234-3.73
			c-19.85,0.12-39.7-0.049-59.545,0.152c-19.846,0.21-30.115,10.652-30.256,30.522c-0.129,18.524-0.097,37.057-0.109,55.581
			c0,1.579,0.206,3.158,0.322,4.843C68.322,130.097,99.179,130.097,130.281,130.097z"/>
		<path fill-rule="evenodd" clip-rule="evenodd" fill="#2C2C2C" d="M130.495,472.226c0-31.385,0-62.624,0-94.572
			c-2.05,0-3.972,0-5.89,0c-23.182,0.008-46.359,0.057-69.537-0.057c-1.926-0.008-3.843-1.144-5.765-1.748
			c0.85-1.805,1.317-3.973,2.614-5.366c11.946-12.86,11.986-12.828,29.616-12.828c14.238,0,28.476,0,42.713,0
			c1.942,0,3.884,0,6.418,0c0-2.449,0-4.222,0-5.995c0-16.889,0.113-33.777-0.077-50.666c-0.052-4.576,1.527-6.349,6.087-5.922
			c3.118,0.29,6.297,0.226,9.428,0.008c3.912-0.266,5.221,1.354,5.189,5.214c-0.145,17.05-0.073,34.107-0.081,51.157
			c0,1.812,0,3.618,0,6.011c2.014,0.097,3.763,0.242,5.511,0.242c17.054,0,34.108,0.104,51.158-0.138
			c4.641-0.064,6.321,1.556,5.934,6.06c-0.253,2.957-0.165,5.963-0.02,8.936c0.189,3.9-1.596,5.189-5.378,5.165
			c-17.219-0.12-34.438-0.056-51.657-0.064c-1.631,0-3.263,0-5.221,0c0,31.699,0,63.059,0,94.91
			c1.829,0.081,3.598,0.234,5.366,0.234c27.649,0.016,55.295-0.089,82.94,0.112c4.585,0.032,5.862-1.241,5.79-5.842
			c-0.278-17.38-0.004-34.769-0.189-52.148c-0.045-4.214,1.096-6.221,5.58-5.825c2.958,0.258,5.975,0.249,8.932,0
			c4.447-0.388,5.713,1.619,5.681,5.809c-0.137,17.719,0.023,35.43-0.064,53.148c-0.017,3.126,0.443,4.843,4.23,4.818
			c29.635-0.146,59.263-0.113,88.898-0.153c0.476,0,0.951-0.209,1.813-0.419c0-31.296,0-62.64,0-94.636
			c-1.677,0-3.433-0.009-5.182,0c-17.219,0-34.438-0.138-51.657,0.097c-4.842,0.064-6.422-1.645-6.316-6.35
			c0.362-16.269-1.934-13.594,13.601-13.73c16.365-0.137,32.738-0.032,49.538-0.032c0-31.319,0-62.341,0-94.173
			c-6.454,0-13.158,0-19.861,0c-1.491,0-2.981,0.017-4.473-0.008c-4.061-0.064-4.955-1.99-3.166-5.463
			c0.08-0.146,0.112-0.314,0.186-0.46c8.089-15.84,4.891-13.841,22.077-14.076c1.636-0.023,3.271,0,5.398,0
			c0.089-1.812,0.233-3.393,0.233-4.979c0.024-7.284,0.589-14.624-0.129-21.845c-1.272-12.924,4.674-22.279,13.626-30.368
			c1.306-1.177,3.384-1.499,5.108-2.208c0.652,1.732,1.869,3.457,1.885,5.197c0.13,14.898,0.041,29.797,0.017,44.703
			c-0.008,2.949,0,5.898,0,9.58c2.047,0,3.634,0,5.222,0c16.728-0.039,33.447,0.121,50.166-0.217
			c6.785-0.146,12.288,1.522,16.639,6.889c1.757,2.168,4.255,3.764,5.923,5.987c1.023,1.353,1.821,3.625,1.386,5.083
			c-0.307,1.056-2.812,2.047-4.352,2.062c-14.729,0.161-29.466,0.097-44.203,0.105c-10.072,0-20.145,0-30.812,0
			c0,8.609,0,16.844,0,25.079c0,21.021,0.129,42.052-0.097,63.074c-0.048,4.609,0.942,6.261,5.938,6.213
			c27.477-0.25,54.961-0.25,82.445,0c4.932,0.04,6.132-1.531,6.067-6.188c-0.282-22.513-0.258-45.034-0.339-67.547
			c0-1.49-0.145-3.014,0.113-4.464c0.604-3.456,3.037-4.367,5.616-1.901c4.439,4.214,8.831,8.517,12.812,13.15
			c1.338,1.562,1.934,4.229,1.941,6.397c0.105,50.166,0.218,100.333,0.024,150.499c-0.072,20.854-17.679,40.465-38.91,44.107
			c-3.408,0.58-6.897,0.982-10.346,0.982c-126.987,0.057-253.975,0.057-380.962,0.041c-23.141-0.009-42.435-13.988-47.773-35.099
			c-1.394-5.528-1.495-11.442-1.648-17.195c-0.254-9.766-0.456-19.556,0.121-29.289c0.214-3.626,2.107-7.502,4.243-10.556
			c2.526-3.609,6.043-6.566,9.355-9.564c1.055-0.95,2.917-1.692,4.226-1.458c0.826,0.145,1.805,2.24,1.861,3.497
			c0.363,8.259,0.561,16.525,0.677,24.801c0.133,9.428-0.117,18.879,0.238,28.298c0.56,14.714,10.209,25.293,24.922,25.712
			C84.518,472.7,107.176,472.226,130.495,472.226z M381.473,377.943c0,4.255,0.008,8.187,0,12.119
			c-0.033,25.978-0.065,51.963-0.113,77.948c0,2.587-0.258,4.907,3.65,4.851c21.836-0.306,43.695-0.016,65.516-0.781
			c14.27-0.5,24.254-11.24,24.632-25.479c0.396-14.391,0.202-28.797,0.242-43.196c0.024-8.396,0-16.792,0-25.462
			C444.047,377.943,413.162,377.943,381.473,377.943z"/>
		<path fill-rule="evenodd" clip-rule="evenodd" fill="#41BCA0" d="M492.046,270.987c-11.377-11.14-22.263-21.743-33.076-32.427
			c-22.48-22.231-44.993-44.438-67.321-66.821c-3.763-3.764-7.348-5.914-12.618-3.683c-1.345,0.572-2.94,1.031-4.343,0.886
			c-9.057-0.934-13.142,4.102-16.904,11.676c-26.373,53.084-53.141,105.969-79.947,158.834c-2.16,4.255-2.176,7.147,0.926,11.039
			c8.3,10.41,8.662,22.521,1.741,33.197c-6.833,10.539-19.589,15.632-31.965,12.771c-12.239-2.837-21.111-12.635-22.166-25.502
			c-0.339-4.142,0.91-8.485,1.901-12.627c0.975-4.085,0.318-7.163-2.804-10.257c-21.639-21.434-43.148-43.004-64.614-64.614
			c-2.78-2.804-5.354-3.73-9.229-2.216c-7.24,2.828-14.681,2.441-21.728-0.677c-3.517-1.562-5.491-0.709-8.062,1.846
			c-32.512,32.335-65.153,64.541-97.767,96.779c-1.16,1.145-2.373,2.24-4.661,4.384c0.628-9.363-2.24-17.292,5.459-24.681
			c28.661-27.501,56.632-55.727,85.08-83.461c4.25-4.142,5.31-7.823,3.441-13.524c-4.984-15.212,4.061-31.287,19.608-35.88
			c15.575-4.6,32.456,3.764,36.174,19c1.414,5.802,0.149,12.384-0.592,18.533c-0.496,4.073-0.178,7.143,2.961,10.245
			c21.538,21.304,42.931,42.753,64.271,64.251c2.836,2.853,5.664,4.343,9.689,3.046c1.708-0.548,3.589-1.008,5.35-0.887
			c9.46,0.629,13.569-4.915,17.453-12.723c26.292-52.922,53.003-105.63,79.729-158.343c2.087-4.109,1.975-6.97-1.048-10.628
			c-8.847-10.7-8.557-25.574,0.202-36.01c9.443-11.24,24.293-14.116,37.169-7.187c12.433,6.688,18.38,20.28,13.738,33.648
			c-1.974,5.696-0.701,8.992,3.336,12.933c27.388,26.678,54.252,53.921,81.994,80.221
			C492.119,250.373,494.222,259.163,492.046,270.987z"/>
	</g>
</g>
</svg>
