<?xml version="1.0" encoding="utf-8"?>
<!-- Generator: Adobe Illustrator 16.0.0, SVG Export Plug-In . SVG Version: 6.00 Build 0)  -->
<!DOCTYPE svg PUBLIC "-//W3C//DTD SVG 1.1//EN" "http://www.w3.org/Graphics/SVG/1.1/DTD/svg11.dtd">
<svg version="1.1" id="Layer_1" xmlns="http://www.w3.org/2000/svg" xmlns:xlink="http://www.w3.org/1999/xlink" x="0px" y="0px"
	 width="284.879px" height="56.114px" viewBox="0 0 284.879 56.114" enable-background="new 0 0 284.879 56.114"
	 xml:space="preserve">
<g>
	<g enable-background="new    ">
		<path fill="#FFFFFF" d="M75.1,21.798c0.227,1.729,2.167,2.883,4.542,2.883c2.499,0,4.123-1.118,4.123-2.639
			c0-1.397-1.065-2.079-3.931-2.673l-3.302-0.646c-4.647-0.891-7.041-3.407-7.041-7.233c0-4.892,4.193-8.036,10.029-8.036
			c6.307,0,10.028,3.057,10.098,7.792h-5.905C83.591,9.411,81.896,8.31,79.59,8.31c-2.236,0-3.722,1.014-3.722,2.551
			c0,1.363,1.118,2.114,3.756,2.656l3.267,0.611c4.979,0.961,7.216,3.215,7.216,7.198c0,5.014-4.141,8.211-10.64,8.211
			c-6.429,0-10.396-2.849-10.465-7.74H75.1z"/>
		<path fill="#FFFFFF" d="M110.394,29.101h-17.28V3.89h17.279v5.171H99.526v5.015h10.221v4.718H99.526v5.136h10.867L110.394,29.101
			L110.394,29.101z"/>
		<path fill="#FFFFFF" d="M138.209,16.504c0,8.037-4.805,13.034-12.439,13.034c-7.652,0-12.457-4.997-12.457-13.034
			s4.822-13.051,12.457-13.051C133.405,3.453,138.209,8.467,138.209,16.504z M119.847,16.504c0,4.787,2.324,7.827,5.923,7.827
			c3.582,0,5.923-3.04,5.923-7.827c0-4.805-2.341-7.845-5.923-7.845S119.847,11.7,119.847,16.504z"/>
	</g>
	<g enable-background="new    ">
		<path fill="#FFFFFF" d="M157.973,3.89c4.805,0,8.088,3.162,8.088,7.845c0,4.682-3.301,7.862-8.104,7.862h-6.554v9.504h-2.375V3.89
			H157.973z M151.402,17.465h6.011c3.879,0,6.203-2.149,6.203-5.73c0-3.582-2.308-5.714-6.203-5.714h-6.011V17.465z"/>
		<path fill="#FFFFFF" d="M171.863,29.101h-2.377V3.89h9.017c4.929,0,8.072,2.883,8.072,7.373c0,3.563-2.027,6.255-5.397,7.128
			l6.098,10.71h-2.778l-5.802-10.325h-0.383h-6.447v10.325H171.863z M171.863,16.662h6.447c3.65,0,5.801-1.957,5.801-5.329
			c0-3.337-2.219-5.312-5.889-5.312h-6.358L171.863,16.662L171.863,16.662z"/>
		<path fill="#FFFFFF" d="M212.329,16.504c0,7.984-4.42,12.999-11.461,12.999c-7.022,0-11.443-5.015-11.443-12.999
			s4.421-13.017,11.443-13.017S212.329,8.52,212.329,16.504z M191.87,16.504c0,6.604,3.493,10.779,8.998,10.779
			c5.521,0,9.016-4.175,9.016-10.779c0-6.622-3.493-10.798-9.016-10.798S191.87,9.882,191.87,16.504z"/>
		<path fill="#FFFFFF" d="M233.157,29.101V17.273h-14.746v11.828h-2.376V3.89h2.376v11.217h14.746V3.89h2.394v25.211H233.157z"/>
		<path fill="#FFFFFF" d="M242.645,20.156c0,4.229,2.762,7.128,7.373,7.128c4.631,0,7.373-2.899,7.373-7.128V3.89h2.395v16.405
			c0,5.434-3.704,9.208-9.768,9.208c-6.062,0-9.748-3.773-9.748-9.208V3.89h2.375V20.156L242.645,20.156z"/>
		<path fill="#FFFFFF" d="M264.486,29.101V3.89h9.277c4.332,0,7.285,2.498,7.285,6.22c0,2.795-1.939,5.188-4.611,5.678v0.123
			c3.477,0.419,5.904,2.777,5.904,6.271c0,4.298-3.197,6.919-8.525,6.919H264.486z M266.863,15.089h5.695
			c3.825,0,6.08-1.747,6.08-4.718c0-2.743-2.027-4.367-5.382-4.367h-6.396v9.085H266.863z M273.502,26.987
			c4.105,0,6.395-1.8,6.395-4.927c0-3.145-2.377-4.909-6.727-4.909h-6.309v9.836H273.502z"/>
	</g>
	<g>
		<g enable-background="new    ">
			<path fill="#FFFFFF" d="M79.153,49.838l-0.162-1.801c-0.558,1.01-1.945,2.071-4.087,2.071c-3.205,0-6.194-2.341-6.194-6.661
				c0-4.322,3.169-6.646,6.32-6.646c2.773,0,4.916,1.55,5.654,3.855l-1.603,0.684c-0.576-1.836-2.07-2.916-4.051-2.916
				c-2.287,0-4.519,1.638-4.519,5.023c0,3.385,2.161,5.059,4.447,5.059c2.845,0,3.871-2.016,3.943-3.33h-4.43V43.59h6.104v6.248
				H79.153z"/>
			<path fill="#FFFFFF" d="M87.918,42.889c-0.252-0.036-0.504-0.055-0.738-0.055c-1.422,0-2.377,0.756-2.377,2.666v4.338H83.11
				v-8.659h1.657v1.512c0.63-1.332,1.71-1.655,2.593-1.655c0.234,0,0.468,0.035,0.558,0.053V42.889z"/>
			<path fill="#FFFFFF" d="M97.765,45.5c0,2.646-1.837,4.608-4.43,4.608c-2.593,0-4.429-1.963-4.429-4.608
				c0-2.629,1.836-4.592,4.429-4.592C95.928,40.909,97.765,42.872,97.765,45.5z M96.037,45.5c0-2-1.261-3.08-2.701-3.08
				s-2.701,1.08-2.701,3.08c0,2.017,1.26,3.097,2.701,3.097S96.037,47.517,96.037,45.5z"/>
			<path fill="#FFFFFF" d="M106.368,41.179l2.25,6.519l1.909-6.519h1.783l-2.809,8.659h-1.747l-2.305-6.59l-2.25,6.59h-1.783
				l-2.845-8.659h1.854l1.945,6.519l2.25-6.519H106.368z"/>
			<path fill="#FFFFFF" d="M118.822,53.458l2.161-4.572l-3.727-7.706h1.944l2.701,5.978l2.593-5.978h1.819l-5.636,12.278H118.822z"
				/>
			<path fill="#FFFFFF" d="M135.708,45.5c0,2.646-1.836,4.608-4.429,4.608c-2.593,0-4.429-1.963-4.429-4.608
				c0-2.629,1.836-4.592,4.429-4.592C133.872,40.909,135.708,42.872,135.708,45.5z M133.98,45.5c0-2-1.26-3.08-2.701-3.08
				c-1.441,0-2.701,1.08-2.701,3.08c0,2.017,1.26,3.097,2.701,3.097C132.72,48.597,133.98,47.517,133.98,45.5z"/>
			<path fill="#FFFFFF" d="M140.927,50.11c-2.017,0-3.241-1.513-3.241-3.477v-5.454h1.692v5.202c0,1.188,0.54,2.232,1.962,2.232
				c1.369,0,2.053-0.9,2.053-2.215v-5.221h1.692v7.058c0,0.685,0.056,1.298,0.09,1.603h-1.62c-0.035-0.197-0.072-0.685-0.072-1.043
				C143.016,49.695,141.936,50.11,140.927,50.11z"/>
			<path fill="#FFFFFF" d="M152.771,42.889c-0.252-0.036-0.504-0.055-0.737-0.055c-1.423,0-2.377,0.756-2.377,2.666v4.338h-1.692
				v-8.659h1.656v1.512c0.63-1.332,1.711-1.655,2.593-1.655c0.234,0,0.47,0.035,0.56,0.053v1.801H152.771z"/>
			<path fill="#FFFFFF" d="M159.07,49.838V36.803h1.675v5.6c0.414-0.773,1.422-1.477,2.862-1.477c2.629,0,3.979,2.017,3.979,4.537
				c0,2.574-1.459,4.609-4.033,4.609c-1.277,0-2.269-0.559-2.809-1.494v1.26H159.07z M163.301,42.42
				c-1.494,0-2.574,1.17-2.574,3.043s1.08,3.098,2.574,3.098c1.549,0,2.557-1.225,2.557-3.098S164.868,42.42,163.301,42.42z"/>
			<path fill="#FFFFFF" d="M172.805,50.11c-2.018,0-3.24-1.513-3.24-3.477v-5.454h1.691v5.202c0,1.188,0.54,2.232,1.963,2.232
				c1.368,0,2.053-0.9,2.053-2.215v-5.221h1.691v7.058c0,0.685,0.055,1.298,0.092,1.603h-1.621
				c-0.037-0.197-0.072-0.685-0.072-1.043C174.893,49.695,173.812,50.11,172.805,50.11z"/>
			<path fill="#FFFFFF" d="M180.562,47.047c0.107,0.9,0.791,1.621,2.017,1.621c0.954,0,1.478-0.541,1.478-1.151
				c0-0.541-0.396-0.955-1.117-1.117l-1.477-0.323c-1.352-0.287-2.161-1.207-2.161-2.431c0-1.478,1.388-2.737,3.079-2.737
				c2.377,0,3.115,1.549,3.295,2.322l-1.494,0.559c-0.072-0.449-0.433-1.439-1.801-1.439c-0.863,0-1.439,0.559-1.439,1.152
				c0,0.521,0.324,0.899,0.99,1.043l1.403,0.308c1.565,0.342,2.396,1.296,2.396,2.573c0,1.226-1.025,2.685-3.168,2.685
				c-2.377,0-3.385-1.53-3.529-2.521L180.562,47.047z"/>
			<path fill="#FFFFFF" d="M188.807,36.676c0.685,0,1.225,0.541,1.225,1.226c0,0.666-0.54,1.206-1.225,1.206
				c-0.666,0-1.207-0.54-1.207-1.206C187.6,37.217,188.141,36.676,188.807,36.676z M187.979,49.838v-8.659h1.674v8.659H187.979z"/>
			<path fill="#FFFFFF" d="M194.225,49.838h-1.692v-8.659h1.655v1.241c0.631-1.08,1.656-1.494,2.666-1.494
				c2.07,0,3.097,1.494,3.097,3.422v5.49h-1.692v-5.203c0-1.206-0.504-2.178-2.017-2.178c-1.332,0-2.017,1.062-2.017,2.375V49.838z"
				/>
			<path fill="#FFFFFF" d="M210.191,47.374c-0.485,1.529-1.873,2.736-3.889,2.736c-2.322,0-4.357-1.693-4.357-4.628
				c0-2.719,1.963-4.573,4.142-4.573c2.665,0,4.159,1.838,4.159,4.537c0,0.217-0.02,0.434-0.036,0.54h-6.519
				c0.037,1.55,1.152,2.63,2.611,2.63c1.404,0,2.105-0.775,2.43-1.746L210.191,47.374z M208.48,44.618
				c-0.035-1.242-0.846-2.215-2.377-2.215c-1.422,0-2.285,1.1-2.357,2.215H208.48z"/>
			<path fill="#FFFFFF" d="M213.124,47.047c0.106,0.9,0.792,1.621,2.017,1.621c0.955,0,1.478-0.541,1.478-1.151
				c0-0.541-0.396-0.955-1.116-1.117l-1.477-0.323c-1.352-0.287-2.16-1.207-2.16-2.431c0-1.478,1.386-2.737,3.078-2.737
				c2.377,0,3.115,1.549,3.295,2.322l-1.494,0.559c-0.072-0.449-0.432-1.439-1.801-1.439c-0.864,0-1.44,0.559-1.44,1.152
				c0,0.521,0.324,0.899,0.99,1.043l1.405,0.308c1.565,0.342,2.395,1.296,2.395,2.573c0,1.226-1.027,2.685-3.17,2.685
				c-2.376,0-3.385-1.53-3.527-2.521L213.124,47.047z"/>
			<path fill="#FFFFFF" d="M221.26,47.047c0.107,0.9,0.792,1.621,2.016,1.621c0.955,0,1.478-0.541,1.478-1.151
				c0-0.541-0.396-0.955-1.116-1.117l-1.476-0.323C220.809,45.79,220,44.87,220,43.646c0-1.478,1.387-2.737,3.079-2.737
				c2.377,0,3.114,1.549,3.295,2.322l-1.494,0.559c-0.071-0.449-0.433-1.439-1.801-1.439c-0.865,0-1.44,0.559-1.44,1.152
				c0,0.521,0.323,0.899,0.99,1.043l1.404,0.308c1.566,0.342,2.395,1.296,2.395,2.573c0,1.226-1.025,2.685-3.169,2.685
				c-2.377,0-3.385-1.53-3.528-2.521L221.26,47.047z"/>
			<path fill="#FFFFFF" d="M241.314,45.5c0,2.646-1.838,4.608-4.431,4.608s-4.429-1.963-4.429-4.608
				c0-2.629,1.836-4.592,4.429-4.592S241.314,42.872,241.314,45.5z M239.585,45.5c0-2-1.261-3.08-2.701-3.08s-2.7,1.08-2.7,3.08
				c0,2.017,1.26,3.097,2.7,3.097S239.585,47.517,239.585,45.5z"/>
			<path fill="#FFFFFF" d="M245.164,49.838h-1.691v-8.659h1.655v1.241c0.631-1.08,1.656-1.494,2.665-1.494
				c2.07,0,3.098,1.494,3.098,3.422v5.49h-1.692v-5.203c0-1.206-0.505-2.178-2.017-2.178c-1.332,0-2.018,1.062-2.018,2.375V49.838z"
				/>
			<path fill="#FFFFFF" d="M253.586,49.838V36.803h1.693v13.035H253.586z"/>
			<path fill="#FFFFFF" d="M258.986,36.676c0.686,0,1.226,0.541,1.226,1.226c0,0.666-0.54,1.206-1.226,1.206
				c-0.666,0-1.204-0.54-1.204-1.206C257.782,37.217,258.32,36.676,258.986,36.676z M258.159,49.838v-8.659h1.675v8.659H258.159z"/>
			<path fill="#FFFFFF" d="M264.404,49.838h-1.69v-8.659h1.656v1.241c0.63-1.08,1.655-1.494,2.664-1.494
				c2.071,0,3.098,1.494,3.098,3.422v5.49h-1.692v-5.203c0-1.206-0.504-2.178-2.017-2.178c-1.333,0-2.019,1.062-2.019,2.375V49.838z
				"/>
			<path fill="#FFFFFF" d="M280.374,47.374c-0.485,1.529-1.873,2.736-3.89,2.736c-2.323,0-4.357-1.693-4.357-4.628
				c0-2.719,1.962-4.573,4.143-4.573c2.664,0,4.157,1.838,4.157,4.537c0,0.217-0.018,0.434-0.034,0.54h-6.519
				c0.035,1.55,1.151,2.63,2.61,2.63c1.403,0,2.105-0.775,2.431-1.746L280.374,47.374z M278.663,44.618
				c-0.036-1.242-0.847-2.215-2.377-2.215c-1.423,0-2.287,1.1-2.359,2.215H278.663z"/>
			<path fill="#FFFFFF" d="M283.377,47.426c0.702,0,1.26,0.559,1.26,1.261s-0.558,1.242-1.26,1.242s-1.242-0.54-1.242-1.242
				S282.675,47.426,283.377,47.426z"/>
		</g>
	</g>
	<g>
		<polygon fill="#00A058" points="1.375,56.114 58.863,56.114 39.132,44.5 21.074,44.5 		"/>
		<polygon fill="#5D82C2" points="60.219,54.461 31.155,0 31.146,25.75 40.24,42.722 		"/>
		<polygon fill="#F0584A" points="0,54.461 29.063,0 29.072,25.75 19.979,42.722 		"/>
		<polygon fill="#F2BD19" points="30.093,28.226 37.627,42.357 22.565,42.357 		"/>
	</g>
</g>
</svg>
